{"title":"Halloween II 2009 Unrated BDRip H264 - R2L [ChattChitto RG]","uid":5295614,"size":2502119904,"categoryP":"video","categoryS":"hd___movies","magnet":"?xt=urn:btih:0522b89d6ac30f89322580f51bdb8a3610c09f44&amp;dn=Halloween+II+2009+Unrated+BDRip+H264+-+R2L+%5BChattChitto+RG%5D&amp;tr=udp%3A%2F%2Ftracker.openbittorrent.com%3A80&amp;tr=udp%3A%2F%2Fopen.demonii.com%3A1337&amp;tr=udp%3A%2F%2Ftracker.coppersurfer.tk%3A6969&amp;tr=udp%3A%2F%2Fexodus.desync.com%3A6969","seeders":0,"leechers":0,"uploader":"ChattChitto","files":-1,"time":1264045884,"description":"General                          : ChattChitto RG - Movies Release\n==========  \nComplete name                    : Halloween II 2009 Unrated Director's Cut BDRip H264 AAC.mp4\nFormat                           : MPEG-4\nFormat profile                   : Base Media\nCodec ID                         : isom\nFile size                        : 2.20 GiB\nDuration                         : 1h 59mn\nOverall bit rate                 : 2 649 Kbps\nEncoded date                     : UTC 2010-01-18 21:30:55\n\nVideo\n==========\nID                               : 1\nFormat                           : AVC\nFormat/Info                      : Advanced Video Codec\nFormat profile                   : &lt;a class=&quot;__cf_email__&quot; href=&quot;/cdn-cgi/l/email-protection&quot; data-cfemail=&quot;2d65444a456d611e031c&quot;&gt;[email&amp;#160;protected]&lt;/a&gt;&lt;script cf-hash='f9e31' type=&quot;text/javascript&quot;&gt;\n/* &lt;![CDATA[ */!function(){try{var t=&quot;currentScript&quot;in document?document.currentScript:function(){for(var t=document.getElementsByTagName(&quot;script&quot;),e=t.length;e--;)if(t[e].getAttribute(&quot;cf-hash&quot;))return t[e]}();if(t&amp;&amp;t.previousSibling){var e,r,n,i,c=t.previousSibling,a=c.getAttribute(&quot;data-cfemail&quot;);if(a){for(e=&quot;&quot;,r=parseInt(a.substr(0,2),16),n=2;a.length-n;n+=2)i=parseInt(a.substr(n,2),16)^r,e+=String.fromCharCode(i);e=document.createTextNode(e),c.parentNode.replaceChild(e,c)}}}catch(u){}}();/* ]]&gt; */&lt;/script&gt;\nFormat settings, CABAC           : Yes\nFormat settings, ReFrames        : 3 frames\nCodec ID                         : avc1\nCodec ID/Info                    : Advanced Video Coding\nDuration                         : 1h 59mn\nBit rate mode                    : Variable\nBit rate                         : 2 300 Kbps\nMaximum bit rate                 : 19.4 Mbps\nWidth                            : 1 280 pixels\nHeight                           : 688 pixels\nDisplay aspect ratio             : 1.860\nFrame rate mode                  : Constant\nFrame rate                       : 23.976 fps\nResolution                       : 8 bits\nColorimetry                      : 4:2:0\nScan type                        : Progressive\nBits/(Pixel*Frame)               : 0.109\nStream size                      : 1.91 GiB (87%)\nWriting library                  : x264 \nEncoded date                     : UTC 2010-01-18 21:03:42\n\nAudio\n==========\nID                               : 2\nFormat                           : AAC\nFormat/Info                      : Advanced Audio Codec\nFormat version                   : Version 4\nFormat profile                   : LC\nFormat settings, SBR             : No\nCodec ID                         : 40\nDuration                         : 1h 59mn\nBit rate mode                    : Variable\nBit rate                         : 346 Kbps\nMaximum bit rate                 : 470 Kbps\nChannel(s)                       : 6 channels\nChannel positions                : Front: L C R, Rear: L R, LFE\nSampling rate                    : 48.0 KHz\nStream size                      : 294 MiB (13%)\nEncoded date                     : UTC 2010-01-18 21:31:56\n\nSubtitles                        : English [.srt files]\n\n\n\nIMDB Link: http://www.imdb.com/title/tt1311067/\n\n\nPlot:\n======\nMichael Myers is still at large and no less dangerous than ever. After a failed reunion to reach his baby sister at their old home, Laurie Strode is immediately taken to a hospital to be treated by the wounds that had been afflicted by her brother a few hours ago. However, Michael isn't too far off and will continue his murdering 'Halloween' rampage until he gets his sister all to himself.\n\n\nSource\n==========\nHalloween II Unrated Director's Cut Blue-Ray 1080p MPEG-4 AVC/DTS-HD Master Audio 5.1 [27.8Gb]\n\nNotes\n==========\nChattChitto RG Encourages Burning this Film with ConvertXtoDVD.\nEnhanced for your viewing pleasure ;)","torrent":{"xt":"urn:btih:0522b89d6ac30f89322580f51bdb8a3610c09f44","amp;dn":"Halloween+II+2009+Unrated+BDRip+H264+-+R2L+%5BChattChitto+RG%5D","amp;tr":["udp%3A%2F%2Ftracker.openbittorrent.com%3A80","udp%3A%2F%2Fopen.demonii.com%3A1337","udp%3A%2F%2Ftracker.coppersurfer.tk%3A6969","udp%3A%2F%2Fexodus.desync.com%3A6969"],"infoHash":"0522b89d6ac30f89322580f51bdb8a3610c09f44","infoHashBuffer":{"type":"Buffer","data":[5,34,184,157,106,195,15,137,50,37,128,245,27,219,138,54,16,192,159,68]},"announce":[],"urlList":[]}}